<?xml version="1.0" encoding="utf-8"?>
<!-- Generator: Adobe Illustrator 22.1.0, SVG Export Plug-In . SVG Version: 6.00 Build 0)  -->
<svg version="1.1" id="Capa_1" xmlns="http://www.w3.org/2000/svg" xmlns:xlink="http://www.w3.org/1999/xlink" x="0px" y="0px"
	 viewBox="0 0 26.9 26.9" style="enable-background:new 0 0 26.9 26.9;" xml:space="preserve">
<style type="text/css">
	.st0{fill:url(#SVGID_1_);}
	.st1{fill:url(#SVGID_2_);}
	.st2{fill:url(#SVGID_3_);}
	.st3{fill:url(#SVGID_4_);}
	.st4{fill:url(#SVGID_5_);}
	.st5{fill:url(#SVGID_6_);}
	.st6{fill:url(#SVGID_7_);}
	.st7{fill:url(#SVGID_8_);}
	.st8{fill:url(#SVGID_9_);}
	.st9{fill:url(#SVGID_10_);}
	.st10{fill:url(#SVGID_11_);}
	.st11{fill:url(#SVGID_12_);}
	.st12{fill:url(#SVGID_13_);}
	.st13{fill:url(#SVGID_14_);}
</style>
<g>
	<g>
		<linearGradient id="SVGID_1_" gradientUnits="userSpaceOnUse" x1="1.5416" y1="1.5417" x2="26.2198" y2="26.2199">
			<stop  offset="0" style="stop-color:#662D91"/>
			<stop  offset="1" style="stop-color:#00C9DD"/>
		</linearGradient>
		<path class="st0" d="M13.5,0C6,0,0,6,0,13.5s6,13.5,13.5,13.5c7.4,0,13.5-6,13.5-13.5S20.9,0,13.5,0z M13.5,25.7
			c-6.8,0-12.2-5.5-12.2-12.2c0-6.8,5.5-12.3,12.2-12.3s12.2,5.5,12.2,12.3S20.2,25.7,13.5,25.7z"/>
		<linearGradient id="SVGID_2_" gradientUnits="userSpaceOnUse" x1="3.8134" y1="-0.7301" x2="28.4916" y2="23.9481">
			<stop  offset="0" style="stop-color:#662D91"/>
			<stop  offset="1" style="stop-color:#00C9DD"/>
		</linearGradient>
		<path class="st1" d="M9.3,4.6l-0.5-1L8.3,3.9l0.5,1C8.9,4.8,9.1,4.7,9.3,4.6z"/>
		<linearGradient id="SVGID_3_" gradientUnits="userSpaceOnUse" x1="-3.8141" y1="6.8974" x2="20.8641" y2="31.5756">
			<stop  offset="0" style="stop-color:#662D91"/>
			<stop  offset="1" style="stop-color:#00C9DD"/>
		</linearGradient>
		<path class="st2" d="M3.6,13.7c0-0.2,0-0.4,0-0.6H2.3v1.2h1.4C3.6,14.1,3.6,13.9,3.6,13.7z"/>
		<linearGradient id="SVGID_4_" gradientUnits="userSpaceOnUse" x1="6.9394" y1="-3.8561" x2="31.6176" y2="20.8221">
			<stop  offset="0" style="stop-color:#662D91"/>
			<stop  offset="1" style="stop-color:#00C9DD"/>
		</linearGradient>
		<path class="st3" d="M14.3,3.6V2.2h-1.2v1.4c0.2,0,0.4,0,0.6,0C13.9,3.6,14.1,3.6,14.3,3.6z"/>
		<linearGradient id="SVGID_5_" gradientUnits="userSpaceOnUse" x1="8.6907" y1="-5.6073" x2="33.3689" y2="19.0709">
			<stop  offset="0" style="stop-color:#662D91"/>
			<stop  offset="1" style="stop-color:#00C9DD"/>
		</linearGradient>
		<path class="st4" d="M24.1,9.1l-0.3-0.5l-1.1,0.6c0.1,0.2,0.2,0.4,0.3,0.6L24.1,9.1z"/>
		<linearGradient id="SVGID_6_" gradientUnits="userSpaceOnUse" x1="8.9382" y1="-5.8548" x2="33.6164" y2="18.8234">
			<stop  offset="0" style="stop-color:#662D91"/>
			<stop  offset="1" style="stop-color:#00C9DD"/>
		</linearGradient>
		<path class="st5" d="M19.1,5.1c0.2,0.1,0.3,0.2,0.5,0.3l0.6-0.9l-0.5-0.3L19.1,5.1z"/>
		<linearGradient id="SVGID_7_" gradientUnits="userSpaceOnUse" x1="2.641658e-02" y1="3.0569" x2="24.7046" y2="27.7351">
			<stop  offset="0" style="stop-color:#662D91"/>
			<stop  offset="1" style="stop-color:#00C9DD"/>
		</linearGradient>
		<path class="st6" d="M4.1,7.7l1,0.7c0.1-0.2,0.2-0.3,0.3-0.5l-1-0.7L4.1,7.7z"/>
		<linearGradient id="SVGID_8_" gradientUnits="userSpaceOnUse" x1="-0.9343" y1="4.0177" x2="23.7439" y2="28.6959">
			<stop  offset="0" style="stop-color:#662D91"/>
			<stop  offset="1" style="stop-color:#00C9DD"/>
		</linearGradient>
		<path class="st7" d="M17.9,22.9l0.7,1.5l0.5-0.3l-0.7-1.5C18.2,22.7,18,22.8,17.9,22.9z"/>
		<linearGradient id="SVGID_9_" gradientUnits="userSpaceOnUse" x1="2.7714" y1="0.3119" x2="27.4496" y2="24.9901">
			<stop  offset="0" style="stop-color:#662D91"/>
			<stop  offset="1" style="stop-color:#00C9DD"/>
		</linearGradient>
		<path class="st8" d="M21.7,19.8l1.3,0.9l0.3-0.5L22,19.4C21.9,19.5,21.8,19.7,21.7,19.8z"/>
		<linearGradient id="SVGID_10_" gradientUnits="userSpaceOnUse" x1="6.9407" y1="-3.8573" x2="31.6189" y2="20.8209">
			<stop  offset="0" style="stop-color:#662D91"/>
			<stop  offset="1" style="stop-color:#00C9DD"/>
		</linearGradient>
		<path class="st9" d="M23.8,13.1c0,0.2,0,0.4,0,0.6c0,0.2,0,0.4,0,0.6h1.4v-1.2H23.8z"/>
		<linearGradient id="SVGID_11_" gradientUnits="userSpaceOnUse" x1="-3.8143" y1="6.8977" x2="20.8639" y2="31.5759">
			<stop  offset="0" style="stop-color:#662D91"/>
			<stop  offset="1" style="stop-color:#00C9DD"/>
		</linearGradient>
		<path class="st10" d="M13.1,23.7v1.4h1.2v-1.4c-0.2,0-0.4,0-0.6,0C13.5,23.8,13.3,23.7,13.1,23.7z"/>
		<linearGradient id="SVGID_12_" gradientUnits="userSpaceOnUse" x1="-5.9376" y1="9.0209" x2="18.7406" y2="33.6991">
			<stop  offset="0" style="stop-color:#662D91"/>
			<stop  offset="1" style="stop-color:#00C9DD"/>
		</linearGradient>
		<path class="st11" d="M7.3,23.4l0.5,0.3l0.9-1.4c-0.2-0.1-0.4-0.2-0.5-0.3L7.3,23.4z"/>
		<linearGradient id="SVGID_13_" gradientUnits="userSpaceOnUse" x1="-5.7818" y1="8.8652" x2="18.8964" y2="33.5434">
			<stop  offset="0" style="stop-color:#662D91"/>
			<stop  offset="1" style="stop-color:#00C9DD"/>
		</linearGradient>
		<path class="st12" d="M3.4,18.9l0.3,0.5L5,18.7c-0.1-0.2-0.2-0.4-0.3-0.5L3.4,18.9z"/>
		<linearGradient id="SVGID_14_" gradientUnits="userSpaceOnUse" x1="1.0639" y1="2.0194" x2="25.7421" y2="26.6976">
			<stop  offset="0" style="stop-color:#662D91"/>
			<stop  offset="1" style="stop-color:#00C9DD"/>
		</linearGradient>
		<polygon class="st13" points="14.1,4.7 13.3,4.7 13.3,13.1 13.3,13.5 13.3,14 8.2,19.6 8.3,19.7 13.3,14.3 19.8,14.3 19.8,13.1 
			14.1,13.1 		"/>
	</g>
</g>
</svg>
