<?xml version="1.0" encoding="utf-8"?>
<!-- Generator: Adobe Illustrator 22.1.0, SVG Export Plug-In . SVG Version: 6.00 Build 0)  -->
<svg version="1.1" id="Capa_1" xmlns="http://www.w3.org/2000/svg" xmlns:xlink="http://www.w3.org/1999/xlink" x="0px" y="0px"
	 viewBox="0 0 38.1 25" style="enable-background:new 0 0 38.1 25;" xml:space="preserve">
<g>
	<g>
		<path d="M7.5,8.8c-0.6,0-1,0.1-1.2,0.1v7.8c0.2,0.1,0.6,0.1,0.9,0.1c2.4,0,4-1.3,4-4.2C11.3,10.1,9.8,8.8,7.5,8.8z"/>
		<path d="M29.4,8.7c-0.7,0-1,0.1-1.2,0.1v3.3h1.1c1.3,0,2.1-0.7,2.1-1.7C31.4,9.3,30.7,8.8,29.4,8.7z"/>
		<path d="M38.1,0H0v25h38.1V0L38.1,0z M12.1,17.3c-1.2,1-3.1,1.5-5.5,1.5c-1.4,0-2.4-0.1-3-0.2V7c1-0.2,2.3-0.2,3.6-0.2
			c2.3,0,3.7,0.4,4.9,1.3c1.2,0.9,2,2.4,2,4.5C14.1,14.7,13.3,16.3,12.1,17.3z M24.6,18.7h-2.8l-2.5-4.6c-0.7-1.3-1.5-2.8-2.1-4.2
			l-0.1,0c0.1,1.6,0.1,3.2,0.1,5.2v3.6h-2.5V6.8H18l2.5,4.3c0.7,1.2,1.4,2.7,1.9,4.1h0.1c-0.2-1.6-0.2-3.2-0.2-4.9V6.8h2.5
			L24.6,18.7L24.6,18.7z M31.8,18.7c-0.2-0.3-0.5-1.3-0.8-2.8C30.6,14.4,30.1,14,29,14h-0.8v4.7h-2.7V7c0.9-0.1,2.1-0.2,3.6-0.2
			c1.8,0,3,0.3,3.8,0.9c0.7,0.6,1.1,1.4,1.1,2.5c0,1.5-1.1,2.6-2.1,2.9v0.1c0.8,0.3,1.3,1.1,1.6,2.2c0.4,1.3,0.7,2.9,1,3.3
			L31.8,18.7C31.8,18.7,31.8,18.7,31.8,18.7z"/>
	</g>
</g>
</svg>
