<?xml version="1.0" encoding="utf-8"?>
<!-- Generator: Adobe Illustrator 22.1.0, SVG Export Plug-In . SVG Version: 6.00 Build 0)  -->
<svg version="1.1" id="Capa_1" xmlns="http://www.w3.org/2000/svg" xmlns:xlink="http://www.w3.org/1999/xlink" x="0px" y="0px"
	 viewBox="0 0 426.7 426.7" style="enable-background:new 0 0 426.7 426.7;" xml:space="preserve">
<style type="text/css">
	.st0{fill:url(#SVGID_1_);}
	.st1{fill:url(#SVGID_2_);}
	.st2{fill:url(#SVGID_3_);}
	.st3{fill:url(#SVGID_4_);}
	.st4{fill:url(#SVGID_5_);}
	.st5{fill:url(#SVGID_6_);}
</style>
<g>
	<g>
		<linearGradient id="SVGID_1_" gradientUnits="userSpaceOnUse" x1="-54.0002" y1="106.0002" x2="319.0118" y2="479.0123">
			<stop  offset="0" style="stop-color:#662D91"/>
			<stop  offset="0.1281" style="stop-color:#514DA1"/>
			<stop  offset="0.3311" style="stop-color:#327DB8"/>
			<stop  offset="0.5936" style="stop-color:#1AA1C9"/>
			<stop  offset="0.8524" style="stop-color:#07BED8"/>
			<stop  offset="1" style="stop-color:#00C9DD"/>
		</linearGradient>
		<path class="st0" d="M405.3,320h-384c-5.9,0-10.7,4.8-10.7,10.7V416c0,5.9,4.8,10.7,10.7,10.7S32,421.9,32,416v-74.7h362.7V416
			c0,5.9,4.8,10.7,10.7,10.7S416,421.9,416,416v-85.3C416,324.8,411.2,320,405.3,320z"/>
	</g>
</g>
<g>
	<g>
		<linearGradient id="SVGID_2_" gradientUnits="userSpaceOnUse" x1="-64.667" y1="116.667" x2="308.3451" y2="489.679">
			<stop  offset="0" style="stop-color:#662D91"/>
			<stop  offset="0.1281" style="stop-color:#514DA1"/>
			<stop  offset="0.3311" style="stop-color:#327DB8"/>
			<stop  offset="0.5936" style="stop-color:#1AA1C9"/>
			<stop  offset="0.8524" style="stop-color:#07BED8"/>
			<stop  offset="1" style="stop-color:#00C9DD"/>
		</linearGradient>
		<path class="st1" d="M405.3,384h-384c-5.9,0-10.7,4.8-10.7,10.7s4.8,10.7,10.7,10.7h384c5.9,0,10.7-4.8,10.7-10.7
			S411.2,384,405.3,384z"/>
	</g>
</g>
<g>
	<g>
		<linearGradient id="SVGID_3_" gradientUnits="userSpaceOnUse" x1="90.0053" y1="-38.0053" x2="463.0174" y2="335.0067">
			<stop  offset="0" style="stop-color:#662D91"/>
			<stop  offset="0.1281" style="stop-color:#514DA1"/>
			<stop  offset="0.3311" style="stop-color:#327DB8"/>
			<stop  offset="0.5936" style="stop-color:#1AA1C9"/>
			<stop  offset="0.8524" style="stop-color:#07BED8"/>
			<stop  offset="1" style="stop-color:#00C9DD"/>
		</linearGradient>
		<path class="st2" d="M405.3,256c-5.9,0-10.7,4.8-10.7,10.7v13.7l-64.9-146.1c-2.4-5.4-8.7-7.9-14.1-5.4c-5.4,2.4-7.8,8.7-5.4,14.1
			l85.3,192c1.7,3.9,5.6,6.3,9.7,6.3c0.7,0,1.5-0.1,2.2-0.2c4.9-1,8.4-5.4,8.4-10.4v-64C416,260.8,411.2,256,405.3,256z"/>
	</g>
</g>
<g>
	<g>
		<linearGradient id="SVGID_4_" gradientUnits="userSpaceOnUse" x1="-51.3342" y1="103.3342" x2="321.6779" y2="476.3463">
			<stop  offset="0" style="stop-color:#662D91"/>
			<stop  offset="0.1281" style="stop-color:#514DA1"/>
			<stop  offset="0.3311" style="stop-color:#327DB8"/>
			<stop  offset="0.5936" style="stop-color:#1AA1C9"/>
			<stop  offset="0.8524" style="stop-color:#07BED8"/>
			<stop  offset="1" style="stop-color:#00C9DD"/>
		</linearGradient>
		<path class="st3" d="M138.7,128h-32c-4.2,0-8,2.5-9.7,6.3L32,280.4v-13.7c0-5.9-4.8-10.7-10.7-10.7s-10.7,4.8-10.7,10.7v64
			c0,5,3.5,9.4,8.4,10.4c0.7,0.2,1.5,0.2,2.2,0.2c4.1,0,8-2.4,9.7-6.3l82.5-185.7h25.1c5.9,0,10.7-4.8,10.7-10.7
			S144.6,128,138.7,128z"/>
	</g>
</g>
<g>
	<g>
		<linearGradient id="SVGID_5_" gradientUnits="userSpaceOnUse" x1="89.0749" y1="-37.0749" x2="462.087" y2="335.9372">
			<stop  offset="0" style="stop-color:#662D91"/>
			<stop  offset="0.1281" style="stop-color:#514DA1"/>
			<stop  offset="0.3311" style="stop-color:#327DB8"/>
			<stop  offset="0.5936" style="stop-color:#1AA1C9"/>
			<stop  offset="0.8524" style="stop-color:#07BED8"/>
			<stop  offset="1" style="stop-color:#00C9DD"/>
		</linearGradient>
		<path class="st4" d="M277.3,0h-128C119.9,0,96,23.9,96,53.3v85.3c0,5.9,4.8,10.7,10.7,10.7s10.7-4.8,10.7-10.7V53.3
			c0-17.6,14.4-32,32-32h128c17.6,0,32,14.4,32,32V128H288c-5.9,0-10.7,4.8-10.7,10.7s4.8,10.7,10.7,10.7h32
			c5.9,0,10.7-4.8,10.7-10.7V53.3C330.7,23.9,306.7,0,277.3,0z"/>
	</g>
</g>
<g>
	<g>
		<linearGradient id="SVGID_6_" gradientUnits="userSpaceOnUse" x1="61.9913" y1="-9.9913" x2="435.0033" y2="363.0208">
			<stop  offset="0" style="stop-color:#662D91"/>
			<stop  offset="0.1281" style="stop-color:#514DA1"/>
			<stop  offset="0.3311" style="stop-color:#327DB8"/>
			<stop  offset="0.5936" style="stop-color:#1AA1C9"/>
			<stop  offset="0.8524" style="stop-color:#07BED8"/>
			<stop  offset="1" style="stop-color:#00C9DD"/>
		</linearGradient>
		<path class="st5" d="M295.6,156l-5.3-42.7c-2-16-15.6-28-31.7-28h-90.3c-16.1,0-29.8,12.1-31.7,28l-5.3,42.7
			c-1.2,9.1,1.7,18.3,7.7,25.2c6.1,6.9,14.8,10.8,24,10.8h101c9.2,0,17.9-3.9,24-10.8C293.9,174.3,296.7,165.1,295.6,156z
			 M271.8,167.1c-2,2.3-4.9,3.6-8,3.6h-101c-3.1,0-6-1.3-8-3.6s-3-5.3-2.6-8.4l5.3-42.7c0.7-5.3,5.2-9.3,10.6-9.3h90.3
			c5.4,0,9.9,4,10.6,9.3l5.3,42.7C274.8,161.7,273.9,164.7,271.8,167.1z"/>
	</g>
</g>
</svg>
