<?xml version="1.0" encoding="utf-8"?>
<!-- Generator: Adobe Illustrator 22.1.0, SVG Export Plug-In . SVG Version: 6.00 Build 0)  -->
<svg version="1.1" id="圖層_1" xmlns="http://www.w3.org/2000/svg" xmlns:xlink="http://www.w3.org/1999/xlink" x="0px" y="0px"
	 viewBox="0 0 512 512" style="enable-background:new 0 0 512 512;" xml:space="preserve">
<style type="text/css">
	.st0{fill:url(#SVGID_1_);}
	.st1{fill:url(#SVGID_2_);}
	.st2{fill:#EFDAE3;}
</style>
<g>
	<linearGradient id="SVGID_1_" gradientUnits="userSpaceOnUse" x1="164.9361" y1="484.3676" x2="307.9361" y2="147.3676">
		<stop  offset="0" style="stop-color:#FFE4EC"/>
		<stop  offset="1" style="stop-color:#FFF1EB"/>
	</linearGradient>
	<path class="st0" d="M401.6,288.2l-38.3-137.6l0,0c-7.2-24.2-29.6-41.9-56.2-41.9H205.2c-26.6,0-49,17.7-56.2,41.9l0,0l-38.3,137.6
		c-2.8,10,3.1,20.4,13.1,23.2c10,2.8,20.4-3.1,23.2-13.1L181.4,175c1.3-4.5,5.4-7.6,10-7.6c6.8,0,11.8,6.4,10.1,13l-36.8,142.9
		l-5.9,22.9c-0.8,3.2,1.6,6.2,4.8,6.2h41.2v140.3c0,10.2,7.9,18.9,18.2,19.3c10.7,0.4,19.5-8.2,19.5-18.8V352.4h27.2v140.7
		c0,10.4,8.4,18.9,18.9,18.9c10.4,0,18.9-8.4,18.9-18.9V352.4h41.2c3.3,0,5.7-3.1,4.8-6.2l-5.9-22.9l-36.8-142.9
		c-1.7-6.6,3.3-13,10.1-13c4.7,0,8.8,3.1,10,7.6l34.4,123.4c2.8,10,13.2,15.9,23.2,13.1C398.5,308.7,404.4,298.3,401.6,288.2z"/>
	<linearGradient id="SVGID_2_" gradientUnits="userSpaceOnUse" x1="86.0039" y1="450.8741" x2="229.0039" y2="113.8741">
		<stop  offset="0" style="stop-color:#FFE4EC"/>
		<stop  offset="1" style="stop-color:#FFF1EB"/>
	</linearGradient>
	<path class="st1" d="M306.1,49.9c0,27.6-22.3,49.9-49.9,49.9c-27.6,0-49.9-22.3-49.9-49.9c0-27.6,22.3-49.9,49.9-49.9
		C283.7,0,306.1,22.3,306.1,49.9z"/>
</g>
<g>
	<path class="st2" d="M256.1,0c-3.6,0-7.2,0.4-10.6,1.1C268,6,284.8,26,284.8,49.9S268,93.8,245.5,98.7c3.4,0.7,7,1.1,10.6,1.1
		c27.6,0,49.9-22.3,49.9-49.9C306.1,22.3,283.7,0,256.1,0z"/>
	<path class="st2" d="M181.4,175c1.3-4.5,5.4-7.6,10-7.6h-18.7c-4.7,0-8.8,3.1-10,7.6l-34.4,123.4c-1.4,5-4.6,8.9-8.8,11.3
		c1.3,0.8,2.7,1.4,4.3,1.8c10,2.8,20.4-3.1,23.2-13.1L181.4,175z"/>
	<path class="st2" d="M401.6,288.2l-38.3-137.6l0,0c-7.2-24.2-29.6-41.9-56.2-41.9h-18.7c26.6,0,49,17.7,56.2,41.9l0,0l38.3,137.6
		c2.4,8.5-1.5,17.2-8.8,21.4c4.2,2.4,9.4,3.2,14.4,1.8C398.5,308.7,404.4,298.3,401.6,288.2z"/>
	<path class="st2" d="M223.8,493.1c0,7-3.8,13.1-9.5,16.3c2.6,1.5,5.5,2.4,8.6,2.5c10.7,0.4,19.5-8.2,19.5-18.8V352.4H229
		c-2.9,0-5.2,2.3-5.2,5.2V493.1z"/>
	<path class="st2" d="M288.7,493.1c0,7-3.8,13.1-9.5,16.4c2.8,1.6,5.9,2.5,9.4,2.5c10.4,0,18.9-8.4,18.9-18.9V352.4h-13.5
		c-2.9,0-5.2,2.3-5.2,5.2V493.1z"/>
	<path class="st2" d="M310.8,180.4c-1.7-6.6,3.3-13,10.1-13h-18.7c-6.8,0-11.8,6.4-10.1,13l44.3,172.1h12.3c3.3,0,5.7-3.1,4.8-6.2
		L310.8,180.4z"/>
</g>
</svg>
