<svg id="圖層_1" data-name="圖層 1" xmlns="http://www.w3.org/2000/svg" xmlns:xlink="http://www.w3.org/1999/xlink" viewBox="0 0 512 512"><defs><style>.cls-1{fill:url(#未命名漸層_11);}.cls-2{fill:url(#未命名漸層_11-2);}.cls-3{fill:#f3d0df;}</style><linearGradient id="未命名漸層_11" x1="164.94" y1="484.37" x2="307.94" y2="147.37" gradientUnits="userSpaceOnUse"><stop offset="0" stop-color="#ffe4ec"/><stop offset="1" stop-color="#fff1eb"/></linearGradient><linearGradient id="未命名漸層_11-2" x1="86" y1="450.87" x2="229" y2="113.87" xlink:href="#未命名漸層_11"/></defs><title>female</title><path class="cls-1" d="M401.59,288.23,363.27,150.64h0a58.61,58.61,0,0,0-56.17-41.9H205.23a58.61,58.61,0,0,0-56.18,41.9h0L110.7,288.23A18.85,18.85,0,1,0,147,298.35L181.4,175a10.41,10.41,0,0,1,20.1,5.39L164.73,323.29l-5.88,22.88a5,5,0,0,0,4.84,6.25h41.16V492.69c0,10.22,8,18.93,18.17,19.3a18.86,18.86,0,0,0,19.54-18.84V352.42h27.17V493.14a18.86,18.86,0,1,0,37.71,0V352.42H348.6a5,5,0,0,0,4.84-6.25l-5.88-22.89L310.78,180.35A10.42,10.42,0,0,1,330.9,175l34.36,123.39a18.86,18.86,0,0,0,36.33-10.12Z"/><path class="cls-2" d="M306.05,49.91A49.91,49.91,0,1,1,256.15,0,49.91,49.91,0,0,1,306.05,49.91Z"/><path class="cls-3" d="M256.15,0a50.15,50.15,0,0,0-10.62,1.14,49.91,49.91,0,0,1,0,97.53A49.91,49.91,0,1,0,256.15,0Z"/><path class="cls-3" d="M181.4,175a10.4,10.4,0,0,1,10-7.61H172.71a10.4,10.4,0,0,0-10,7.61L128.31,298.35a18.84,18.84,0,0,1-8.79,11.29,18.3,18.3,0,0,0,4.28,1.81A18.84,18.84,0,0,0,147,298.35Z"/><path class="cls-3" d="M401.59,288.23,363.27,150.64h0a58.61,58.61,0,0,0-56.17-41.9H288.35a58.6,58.6,0,0,1,56.17,41.9h0l38.33,137.59a18.83,18.83,0,0,1-8.82,21.41,18.84,18.84,0,0,0,27.53-21.41Z"/><path class="cls-3" d="M223.84,493.14a18.84,18.84,0,0,1-9.45,16.33A18.31,18.31,0,0,0,223,512a18.84,18.84,0,0,0,19.54-18.84V352.42H229a5.2,5.2,0,0,0-5.2,5.2Z"/><path class="cls-3" d="M288.73,493.14a18.84,18.84,0,0,1-9.5,16.36,18.83,18.83,0,0,0,28.21-16.35V352.42H293.93a5.2,5.2,0,0,0-5.2,5.2Z"/><path class="cls-3" d="M310.79,180.35a10.4,10.4,0,0,1,10.08-13H302.15a10.4,10.4,0,0,0-10.08,13l44.27,172.07H348.6a5,5,0,0,0,4.84-6.25Z"/></svg>