<?xml version="1.0" encoding="utf-8"?>
<!-- Generator: Adobe Illustrator 22.1.0, SVG Export Plug-In . SVG Version: 6.00 Build 0)  -->
<svg version="1.1" id="Capa_1" xmlns="http://www.w3.org/2000/svg" xmlns:xlink="http://www.w3.org/1999/xlink" x="0px" y="0px"
	 viewBox="0 0 76.7 76.7" style="enable-background:new 0 0 76.7 76.7;" xml:space="preserve">
<style type="text/css">
	.st0{fill:url(#SVGID_1_);}
</style>
<g>
	<linearGradient id="SVGID_1_" gradientUnits="userSpaceOnUse" x1="-7.1192" y1="14.6192" x2="66.0364" y2="87.7747">
		<stop  offset="0" style="stop-color:#662D91"/>
		<stop  offset="0.3756" style="stop-color:#4363AB"/>
		<stop  offset="1" style="stop-color:#00C9DD"/>
	</linearGradient>
	<path class="st0" d="M73.2,43.5c-1.7,0-3.1,1.4-3.1,3.1v5.2H6.7V28.4c0-1.7-1.4-3.1-3.1-3.1c-1.7,0-3.1,1.4-3.1,3.1v45.2
		c0,1.7,1.4,3.1,3.1,3.1c1.7,0,3.1-1.4,3.1-3.1v-6.2h63.4v6.2c0,1.7,1.4,3.1,3.1,3.1c1.7,0,3.1-1.4,3.1-3.1v-27
		C76.3,44.9,74.9,43.5,73.2,43.5z M6.7,61.1V58h63.4v3.1H6.7z M11.5,45.2c0-1.7,1.4-3.1,3.1-3.1H29c1.7,0,3.1,1.4,3.1,3.1
		c0,1.7-1.4,3.1-3.1,3.1H14.6C12.9,48.3,11.5,46.9,11.5,45.2z"/>
</g>
</svg>
