<svg id="圖層_1" data-name="圖層 1" xmlns="http://www.w3.org/2000/svg" xmlns:xlink="http://www.w3.org/1999/xlink" viewBox="0 0 512 512"><defs><style>.cls-1{fill:url(#未命名漸層_5);}.cls-2{fill:#a7daf2;}.cls-3{fill:url(#未命名漸層_13);}</style><linearGradient id="未命名漸層_5" x1="100.75" y1="424.43" x2="222.75" y2="129.43" gradientUnits="userSpaceOnUse"><stop offset="0" stop-color="#ace0f9"/><stop offset="1" stop-color="#fff1eb"/></linearGradient><linearGradient id="未命名漸層_13" x1="173.4" y1="454.47" x2="295.4" y2="159.47" xlink:href="#未命名漸層_5"/></defs><title>male</title><path class="cls-1" d="M305.54,49.89A49.89,49.89,0,1,1,255.65,0,49.89,49.89,0,0,1,305.54,49.89Z"/><path class="cls-2" d="M255.65,0A50.13,50.13,0,0,0,245,1.14a49.89,49.89,0,0,1,0,97.49A49.89,49.89,0,1,0,255.65,0Z"/><path class="cls-3" d="M306.63,108.27h-102A58.67,58.67,0,0,0,146,166.94V292.59c0,10.23,8,19,18.19,19.31A18.87,18.87,0,0,0,183.75,293V177.21a10.27,10.27,0,1,1,20.54,0V492.67c0,10.24,8,19,18.19,19.32a18.88,18.88,0,0,0,19.57-18.87V356.46a13.6,13.6,0,0,1,27.2,0V493.12a18.88,18.88,0,1,0,37.75,0V177.21a10.28,10.28,0,0,1,20.55,0V293a18.88,18.88,0,0,0,37.75,0V166.94A58.67,58.67,0,0,0,306.63,108.27Z"/><path class="cls-2" d="M223.31,358.48V493.13a18.84,18.84,0,0,1-9.47,16.33c.4.24.82.46,1.23.67l.5.23c.44.19.88.38,1.34.55l.35.11c.41.14.83.27,1.26.38l.37.1c.5.12,1,.21,1.55.29l.36,0c.55.07,1.11.13,1.68.15a18.86,18.86,0,0,0,19.16-15,18.44,18.44,0,0,0,.41-3.88V356.46a13.6,13.6,0,0,1,13.6-13.6H238.92A15.62,15.62,0,0,0,223.31,358.48Z"/><path class="cls-2" d="M288.27,182.56V493.12a18.88,18.88,0,0,1-9.51,16.38c.3.17.6.32.91.48l.38.18q.69.33,1.41.6c.24.1.47.19.72.27l.73.22c.34.1.7.19,1,.27.17,0,.34.09.52.12.49.09,1,.17,1.49.23l.46,0c.56,0,1.13.09,1.7.09a18.88,18.88,0,0,0,14.57-6.87,19.35,19.35,0,0,0,2-3,15.64,15.64,0,0,0,.79-1.65,18.79,18.79,0,0,0,1.39-5.42c.06-.63.1-1.28.1-1.93V177.21a10.27,10.27,0,0,1,10.27-10.27h-13.4A15.61,15.61,0,0,0,288.27,182.56Z"/><path class="cls-2" d="M194,166.94a10.27,10.27,0,0,0-10.27,10.27V293a18.87,18.87,0,0,1-19.56,18.86c-.57,0-1.13-.08-1.69-.15l-.36,0c-.52-.08-1-.18-1.55-.3l-.36-.1c-.43-.11-.85-.24-1.27-.37a3.59,3.59,0,0,0-.35-.12c-.45-.16-.9-.35-1.34-.55l-.49-.23q-.63-.32-1.23-.66A18.85,18.85,0,0,0,165,293V182.56a15.61,15.61,0,0,1,15.61-15.62Z"/><path class="cls-2" d="M306.63,108.27H287.89a58.67,58.67,0,0,1,58.67,58.67V293a18.85,18.85,0,0,1-9.51,16.37A18.87,18.87,0,0,0,365.3,293V166.94A58.67,58.67,0,0,0,306.63,108.27Z"/></svg>