<?xml version="1.0" encoding="utf-8"?>
<!-- Generator: Adobe Illustrator 22.1.0, SVG Export Plug-In . SVG Version: 6.00 Build 0)  -->
<svg version="1.1" id="Capa_1" xmlns="http://www.w3.org/2000/svg" xmlns:xlink="http://www.w3.org/1999/xlink" x="0px" y="0px"
	 viewBox="0 0 480 480" style="enable-background:new 0 0 480 480;" xml:space="preserve">
<style type="text/css">
	.st0{fill:url(#SVGID_1_);}
</style>
<g>
	<linearGradient id="SVGID_1_" gradientUnits="userSpaceOnUse" x1="-1.3458" y1="109.6765" x2="419.3012" y2="530.3235">
		<stop  offset="0" style="stop-color:#662D91"/>
		<stop  offset="1" style="stop-color:#00C9DD"/>
	</linearGradient>
	<path class="st0" d="M456,224c-14.1,0-24,6.3-24,15.3v27.5c-12.7-25-32.1-42.8-56-42.8H152c-4.4,0-8,3.6-8,8c0,0,0,0,0,0v48.1
		c0-13.1-5.2-26.1-15.6-35.6c-19.6-17.9-49.9-16.6-67.8,3c-16.8,18.3-16.8,46.4-0.1,64.7c-4.6,0.5-9,2.4-12.5,5.4V115.2
		C48,104.4,37.5,96,24,96s-24,8.4-24,19.2v345.6C0,471.6,10.5,480,24,480s24-8.4,24-19.2V408h384v56.7c0,9,9.9,15.3,24,15.3
		s24-6.3,24-15.3V239.3C480,230.3,470.1,224,456,224z M32,460.8c-0.1,0.7-2.8,3.2-8,3.2c-5.3,0-7.9-2.5-8-3.2V115.2
		c0.1-0.7,2.8-3.2,8-3.2c5.2,0,7.9,2.5,8,3.2V460.8z M160,240h216c30.2,0,53.2,44.9,55.8,88H160V240z M144,280.1v38.6
		c-3.5-3.4-7.8-5.6-12.6-6.3C139.8,303.1,144,291.6,144,280.1z M96,248c17.7,0,32,14.3,32,32s-14.3,32-32,32s-32-14.3-32-32
		C64,262.3,78.3,248,96,248z M432,392H48v-48c4.2-0.3,7.4-3.8,7.4-8c-0.1-4.3,3.4-7.9,7.7-8h64.6c4.3,0.1,7.8,3.7,7.7,8
		c0,4.4,3.6,8,8,8c0,0,0,0,0,0H432V392z M464,462.6c-5.2,1.9-10.8,1.9-16,0V241.4c5.2-1.9,10.8-1.9,16,0V462.6z"/>
</g>
</svg>
