<?xml version="1.0" encoding="utf-8"?>
<!-- Generator: Adobe Illustrator 22.1.0, SVG Export Plug-In . SVG Version: 6.00 Build 0)  -->
<svg version="1.1" id="Layer_1" xmlns="http://www.w3.org/2000/svg" xmlns:xlink="http://www.w3.org/1999/xlink" x="0px" y="0px"
	 viewBox="0 0 618.1 251.1" style="enable-background:new 0 0 618.1 251.1;" xml:space="preserve">
<style type="text/css">
	.st0{fill:url(#SVGID_1_);}
	.st1{fill:url(#SVGID_2_);}
	.st2{fill:url(#SVGID_3_);}
	.st3{fill:url(#SVGID_4_);}
	.st4{fill:url(#SVGID_5_);}
	.st5{fill:url(#SVGID_6_);}
	.st6{fill:url(#SVGID_7_);}
	.st7{fill:url(#SVGID_8_);}
	.st8{fill:url(#SVGID_9_);}
	.st9{fill:url(#SVGID_10_);}
	.st10{fill:url(#SVGID_11_);}
	.st11{fill:url(#SVGID_12_);}
	.st12{fill:url(#SVGID_13_);}
	.st13{fill:url(#SVGID_14_);}
	.st14{fill:url(#SVGID_15_);}
	.st15{fill:url(#SVGID_16_);}
</style>
<g>
	<linearGradient id="SVGID_1_" gradientUnits="userSpaceOnUse" x1="-21.0113" y1="-12.4024" x2="483.4909" y2="492.0998">
		<stop  offset="0" style="stop-color:#662D91"/>
		<stop  offset="0.3489" style="stop-color:#485AA7"/>
		<stop  offset="1" style="stop-color:#00C9DD"/>
	</linearGradient>
	<path class="st0" d="M53.1,197.3h16v32.2h15.7v-32.2h168.5v32.2h15.7v-32.2h16v-55.7H53.1V197.3z M68.7,157.3h200.5v24.4H68.7
		V157.3z"/>
	<linearGradient id="SVGID_2_" gradientUnits="userSpaceOnUse" x1="119.0842" y1="-152.4979" x2="623.5864" y2="352.0043">
		<stop  offset="0" style="stop-color:#662D91"/>
		<stop  offset="0.3489" style="stop-color:#485AA7"/>
		<stop  offset="1" style="stop-color:#00C9DD"/>
	</linearGradient>
	<path class="st1" d="M333.2,141.6v55.7h16v32.2h15.7v-32.2h168.5v32.2H549v-32.2h16v-55.7L333.2,141.6L333.2,141.6z M549.4,181.7
		H348.9v-24.4h200.5V181.7z"/>
	<linearGradient id="SVGID_3_" gradientUnits="userSpaceOnUse" x1="5.181" y1="-38.5948" x2="509.6833" y2="465.9074">
		<stop  offset="0" style="stop-color:#662D91"/>
		<stop  offset="0.3489" style="stop-color:#485AA7"/>
		<stop  offset="1" style="stop-color:#00C9DD"/>
	</linearGradient>
	<path class="st2" d="M252.8,133.5v-5.7c0-14.4-11.7-26.1-26.1-26.1H111.2c-14.4,0-26.1,11.7-26.1,26.1v5.7h15.7v-5.7
		c0-5.8,4.7-10.4,10.4-10.4h115.6c5.8,0,10.4,4.7,10.4,10.4v5.7H252.8z"/>
	<linearGradient id="SVGID_4_" gradientUnits="userSpaceOnUse" x1="145.2765" y1="-178.6903" x2="649.7787" y2="325.8119">
		<stop  offset="0" style="stop-color:#662D91"/>
		<stop  offset="0.3489" style="stop-color:#485AA7"/>
		<stop  offset="1" style="stop-color:#00C9DD"/>
	</linearGradient>
	<path class="st3" d="M533,133.5v-5.7c0-14.4-11.7-26.1-26.1-26.1H391.4c-14.4,0-26.1,11.7-26.1,26.1v5.7h15.7v-5.7
		c0-5.8,4.7-10.4,10.4-10.4h115.6c5.8,0,10.4,4.7,10.4,10.4v5.7H533z"/>
	<linearGradient id="SVGID_5_" gradientUnits="userSpaceOnUse" x1="29.0222" y1="-62.4359" x2="533.5244" y2="442.0663">
		<stop  offset="0" style="stop-color:#662D91"/>
		<stop  offset="0.3489" style="stop-color:#485AA7"/>
		<stop  offset="1" style="stop-color:#00C9DD"/>
	</linearGradient>
	<polygon class="st4" points="76.7,37.2 261.2,37.2 261.2,133.5 276.9,133.5 276.9,21.5 61.1,21.5 61.1,133.5 76.7,133.5 	"/>
	<linearGradient id="SVGID_6_" gradientUnits="userSpaceOnUse" x1="25.8104" y1="-59.2242" x2="530.3127" y2="445.278">
		<stop  offset="0" style="stop-color:#662D91"/>
		<stop  offset="0.3489" style="stop-color:#485AA7"/>
		<stop  offset="1" style="stop-color:#00C9DD"/>
	</linearGradient>
	<path class="st5" d="M220.8,93.4v-9.9c0-12.1-9.8-21.9-21.9-21.9H139c-12.1,0-21.9,9.8-21.9,21.9v9.9h15.7v-9.9
		c0-3.4,2.8-6.2,6.2-6.2h59.9c3.4,0,6.2,2.8,6.2,6.2v9.9H220.8z"/>
	<linearGradient id="SVGID_7_" gradientUnits="userSpaceOnUse" x1="169.1174" y1="-202.5312" x2="673.6196" y2="301.971">
		<stop  offset="0" style="stop-color:#662D91"/>
		<stop  offset="0.3489" style="stop-color:#485AA7"/>
		<stop  offset="1" style="stop-color:#00C9DD"/>
	</linearGradient>
	<polygon class="st6" points="356.9,37.2 541.4,37.2 541.4,133.5 557,133.5 557,21.5 341.2,21.5 341.2,133.5 356.9,133.5 	"/>
	<linearGradient id="SVGID_8_" gradientUnits="userSpaceOnUse" x1="165.9052" y1="-199.319" x2="670.4074" y2="305.1833">
		<stop  offset="0" style="stop-color:#662D91"/>
		<stop  offset="0.3489" style="stop-color:#485AA7"/>
		<stop  offset="1" style="stop-color:#00C9DD"/>
	</linearGradient>
	<path class="st7" d="M501,93.4v-9.9c0-12.1-9.8-21.9-21.9-21.9h-59.9c-12.1,0-21.9,9.8-21.9,21.9v9.9H413v-9.9
		c0-3.4,2.8-6.2,6.2-6.2h59.9c3.4,0,6.2,2.8,6.2,6.2v9.9H501z"/>
</g>
</svg>
